<?xml version="1.0" encoding="UTF-8" standalone="no"?>
<!DOCTYPE svg PUBLIC "-//W3C//DTD SVG 1.1//EN" "http://www.w3.org/Graphics/SVG/1.1/DTD/svg11.dtd">
<!-- 由 Microsoft Visio, SVG Export 生成 HTTP缓存.svg 页-1 -->
<svg xmlns="http://www.w3.org/2000/svg" xmlns:xlink="http://www.w3.org/1999/xlink" xmlns:ev="http://www.w3.org/2001/xml-events"
		width="8.19543in" height="8.97623in" viewBox="0 0 590.071 646.288" xml:space="preserve" color-interpolation-filters="sRGB"
		class="st13">
	<style type="text/css">
	<![CDATA[
		.st1 {fill:#fcb738;stroke:#ffc000;stroke-width:0.75}
		.st2 {fill:#feffff;font-family:Microsoft YaHei UI;font-size:1.00001em}
		.st3 {font-size:1em}
		.st4 {marker-end:url(#mrkr4-10);stroke:#8699a2;stroke-linecap:round;stroke-linejoin:round;stroke-width:2}
		.st5 {fill:#8699a2;fill-opacity:1;stroke:#8699a2;stroke-opacity:1;stroke-width:0.44247787610619}
		.st6 {fill:#ffffff;stroke:none;stroke-linecap:butt;stroke-width:7.2}
		.st7 {fill:#8699a2;font-family:微软雅黑;font-size:1.00001em}
		.st8 {fill:#42b782;stroke:#42b782;stroke-width:0.25}
		.st9 {fill:#8699a2;font-family:Microsoft YaHei UI;font-size:1.00001em}
		.st10 {fill:#d95960;stroke:#d95960;stroke-width:0.75}
		.st11 {fill:#ffffff;stroke:none;stroke-linecap:butt}
		.st12 {fill:#344f5d;stroke:#344f5d;stroke-width:0.75}
		.st13 {fill:none;fill-rule:evenodd;font-size:12px;overflow:visible;stroke-linecap:square;stroke-miterlimit:3}
	]]>
	</style>

	<defs id="Markers">
		<g id="lend4">
			<path d="M 2 1 L 0 0 L 2 -1 L 2 1 " style="stroke:none"/>
		</g>
		<marker id="mrkr4-10" class="st5" refX="-4.52" orient="auto" markerUnits="strokeWidth" overflow="visible">
			<use xlink:href="#lend4" transform="scale(-2.26,-2.26) "/>
		</marker>
	</defs>
	<g>
		<title>页-1</title>
		<g id="shape4-1" transform="translate(0.75,-458.29)">
			<title>判定</title>
			<desc>Cache-Control 是否过期</desc>
			<path d="M0 613.15 L55.01 580 L110.01 613.15 L55.01 646.29 L0 613.15 Z" class="st1"/>
			<text x="13.51" y="609.54" class="st2">Cache-Control <tspan x="31.01" dy="1.2em" class="st3">是否过期</tspan></text>		</g>
		<g id="shape7-5" transform="translate(110.763,-484.347)">
			<title>动态连接线.7</title>
			<desc>是</desc>
			<path d="M0 639.2 L40.47 639.2" class="st4"/>
			<rect x="18.7529" y="631.904" width="12.0001" height="14.5962" class="st6"/>
			<text x="18.75" y="642.85" class="st7">是</text>
		</g>
		<g id="shape6-13" transform="translate(160.269,-458.29)">
			<title>判定.6</title>
			<desc>是否有Etag</desc>
			<path d="M0 613.15 L55.01 580 L110.01 613.15 L55.01 646.29 L0 613.15 Z" class="st1"/>
			<text x="24.32" y="616.75" class="st2">是否有Etag</text>
		</g>
		<g id="shape9-16" transform="translate(270.283,-484.347)">
			<title>动态连接线.9</title>
			<desc>是</desc>
			<path d="M0 639.2 L40.47 639.2" class="st4"/>
			<rect x="18.7529" y="631.904" width="12.0001" height="14.5962" class="st6"/>
			<text x="18.75" y="642.85" class="st7">是</text>
		</g>
		<g id="shape8-23" transform="translate(319.788,-458.29)">
			<title>流程.8</title>
			<desc>带If-None-Match 向Web服务器请求</desc>
			<rect x="0" y="580.002" width="110.013" height="66.2867" class="st8"/>
			<text x="6.06" y="609.54" class="st2">带If-None-Match <tspan x="5.66" dy="1.2em" class="st3">向</tspan>Web服务器请求</text>
		</g>
		<g id="shape11-27" transform="translate(48.67,-458.29)">
			<title>动态连接线.11</title>
			<desc>否</desc>
			<path d="M7.09 646.29 L7.09 690.6" class="st4"/>
			<rect x="1.08652" y="665.667" width="12.0001" height="14.5962" class="st6"/>
			<text x="1.09" y="676.61" class="st7">否</text>
		</g>
		<g id="shape10-34" transform="translate(0.75,-338.651)">
			<title>流程.10</title>
			<desc>从缓存读取 From Cache</desc>
			<rect x="0" y="580.002" width="110.013" height="66.2867" class="st8"/>
			<text x="25.01" y="609.54" class="st2">从缓存读取 <tspan x="20.88" dy="1.2em" class="st3">From Cache</tspan></text>
		</g>
		<g id="shape13-38" transform="translate(208.189,-458.29)">
			<title>动态连接线.13</title>
			<desc>否</desc>
			<path d="M7.09 646.29 L7.09 690.6" class="st4"/>
			<rect x="1.08652" y="665.667" width="12.0001" height="14.5962" class="st6"/>
			<text x="1.09" y="676.61" class="st7">否</text>
		</g>
		<g id="shape12-45" transform="translate(160.269,-338.651)">
			<title>判定.12</title>
			<desc>是否有 Last-Modified</desc>
			<path d="M0 613.15 L55.01 580 L110.01 613.15 L55.01 646.29 L0 613.15 Z" class="st1"/>
			<text x="37.01" y="609.54" class="st2">是否有 <tspan x="14.97" dy="1.2em" class="st3">Last</tspan>-Modified</text>
		</g>
		<g id="shape15-49" transform="translate(270.283,-364.707)">
			<title>动态连接线.15</title>
			<desc>是</desc>
			<path d="M0 639.2 L40.47 639.2" class="st4"/>
			<rect x="18.7529" y="632.002" width="12.0001" height="14.4001" class="st6"/>
			<text x="18.75" y="642.8" class="st9">是</text>
		</g>
		<g id="shape14-56" transform="translate(319.788,-338.651)">
			<title>流程.14</title>
			<desc>带If-Modified-Since 向服务器请求</desc>
			<rect x="0" y="580.002" width="110.013" height="66.2867" class="st8"/>
			<text x="13.94" y="602.35" class="st2">带If-Modified-<tspan x="39.84" dy="1.2em" class="st3">Since </tspan><tspan
						x="19.01" dy="1.2em" class="st3">向服务器请求</tspan></text>
		</g>
		<g id="shape30-61" transform="translate(429.802,-364.707)">
			<title>动态连接线.30</title>
			<path d="M0 639.2 L40.47 639.2" class="st4"/>
		</g>
		<g id="shape29-66" transform="translate(479.308,-338.651)">
			<title>流程.29</title>
			<desc>服务器决策</desc>
			<rect x="0" y="580.002" width="110.013" height="66.2867" class="st8"/>
			<text x="25.01" y="616.75" class="st2">服务器决策</text>
		</g>
		<g id="shape31-69" transform="translate(429.802,-491.433)">
			<title>动态连接线.31</title>
			<path d="M0 646.29 L104.51 646.29 L104.51 723.74" class="st4"/>
		</g>
		<g id="shape33-74" transform="translate(208.189,-338.651)">
			<title>动态连接线.33</title>
			<desc>否</desc>
			<path d="M7.09 646.29 L7.09 690.6" class="st4"/>
			<rect x="1.08652" y="665.765" width="12.0001" height="14.4001" class="st6"/>
			<text x="1.09" y="676.57" class="st9">否</text>
		</g>
		<g id="shape32-81" transform="translate(160.269,-219.011)">
			<title>流程.32</title>
			<desc>向服务器请求</desc>
			<rect x="0" y="580.002" width="110.013" height="66.2867" class="st8"/>
			<text x="19.01" y="616.75" class="st2">向服务器请求</text>
		</g>
		<g id="shape35-84" transform="translate(208.189,-219.011)">
			<title>动态连接线.35</title>
			<path d="M7.09 646.29 L7.09 690.6" class="st4"/>
		</g>
		<g id="shape34-89" transform="translate(160.269,-99.3717)">
			<title>流程.34</title>
			<desc>请求响应</desc>
			<rect x="0" y="580.002" width="110.013" height="66.2867" class="st8"/>
			<text x="31.01" y="616.75" class="st2">请求响应</text>
		</g>
		<g id="shape37-92" transform="translate(208.189,-99.3717)">
			<title>动态连接线.37</title>
			<path d="M7.09 646.29 L7.09 691.68" class="st4"/>
		</g>
		<g id="shape36-97" transform="translate(160.269,-0.75)">
			<title>开始/结束.36</title>
			<desc>浏览器渲染</desc>
			<path d="M22.1 646.29 L87.92 646.29 A22.0956 22.0956 -180 0 0 87.92 602.1 L22.1 602.1 A22.0956 22.0956 -180 1 0 22.1
						 646.29 Z" class="st10"/>
			<text x="25.01" y="627.79" class="st2">浏览器渲染</text>
		</g>
		<g id="shape39-100" transform="translate(527.228,-338.651)">
			<title>动态连接线.39</title>
			<path d="M7.09 646.29 L7.09 690.6" class="st4"/>
		</g>
		<g id="shape38-105" transform="translate(479.308,-219.011)">
			<title>判定.38</title>
			<desc>判断 200还是304</desc>
			<path d="M0 613.15 L55.01 580 L110.01 613.15 L55.01 646.29 L0 613.15 Z" class="st1"/>
			<text x="43.01" y="609.54" class="st2">判断 <tspan x="21.89" dy="1.2em" class="st3">200</tspan>还是304</text>
		</g>
		<g id="shape41-109" transform="translate(527.228,-219.011)">
			<title>动态连接线.41</title>
			<desc>304无更新</desc>
			<path d="M7.09 646.29 L7.09 690.6" class="st4"/>
			<rect x="-21.4695" y="665.765" width="57.1122" height="14.4001" class="st11"/>
			<text x="-21.47" y="676.57" class="st9">304无更新</text>
		</g>
		<g id="shape40-116" transform="translate(479.308,-99.3717)">
			<title>流程.40</title>
			<desc>从缓存读取</desc>
			<rect x="0" y="580.002" width="110.013" height="66.2867" class="st8"/>
			<text x="25.01" y="616.75" class="st2">从缓存读取</text>
		</g>
		<g id="shape42-119" transform="translate(55.7566,-338.651)">
			<title>动态连接线.42</title>
			<path d="M0 646.29 L0 962.09 L95.47 962.09" class="st4"/>
		</g>
		<g id="shape43-124" transform="translate(479.308,-252.154)">
			<title>动态连接线.43</title>
			<desc>200有更新</desc>
			<path d="M0 646.29 L-21.26 646.29 L-21.26 765.93 L-199.99 765.93" class="st4"/>
			<rect x="-73.249" y="758.728" width="57.1122" height="14.4001" class="st6"/>
			<text x="-73.25" y="769.53" class="st9">200有更新</text>
		</g>
		<g id="shape44-131" transform="translate(534.314,-99.3717)">
			<title>动态连接线.44</title>
			<path d="M0 646.29 L0 722.81 L-254.99 722.81" class="st4"/>
		</g>
		<g id="shape58-136" transform="translate(48.67,-601.347)">
			<title>动态连接线</title>
			<path d="M7.09 646.29 L7.09 714.02" class="st4"/>
		</g>
		<g id="shape64-141" transform="translate(0.75,-601.347)">
			<title>开始/结束.64</title>
			<desc>浏览器请求</desc>
			<path d="M22.1 646.29 L87.92 646.29 A22.0956 22.0956 -180 0 0 87.92 602.1 L22.1 602.1 A22.0956 22.0956 -180 1 0 22.1
						 646.29 Z" class="st12"/>
			<text x="25.01" y="627.79" class="st2">浏览器请求</text>
		</g>
	</g>
</svg>
